<svg width="256" height="256" viewBox="0 0 256 256" fill="none" xmlns="http://www.w3.org/2000/svg">
  <defs>
    <linearGradient id="g1" x1="32" y1="32" x2="224" y2="224" gradientUnits="userSpaceOnUse">
      <stop stop-color="#0F9D58"/>
      <stop offset="1" stop-color="#0B7C46"/>
    </linearGradient>
    <linearGradient id="g2" x1="78" y1="64" x2="178" y2="196" gradientUnits="userSpaceOnUse">
      <stop stop-color="#F0FDF4"/>
      <stop offset="1" stop-color="#E6F7ED"/>
    </linearGradient>
  </defs>
  <rect x="16" y="16" width="224" height="224" rx="48" fill="#0A2F1F"/>
  <rect x="28" y="28" width="200" height="200" rx="40" fill="url(#g1)"/>
  <circle cx="128" cy="128" r="70" fill="url(#g2)" stroke="#0A2F1F" stroke-width="6"/>
  <path d="M84 148c8.5 10.5 23 20 44 20 21.5 0 36-9.5 44-20" stroke="#0F9D58" stroke-width="10" stroke-linecap="round"/>
  <path d="M100 112c0-10 7-18 16-18s16 8 16 18-7 18-16 18-16-8-16-18Zm40 0c0-10 7-18 16-18s16 8 16 18-7 18-16 18-16-8-16-18Z" fill="#0A2F1F"/>
  <path d="M88 172c12 8 24 12 40 12s28-4 40-12" stroke="#F0FDF4" stroke-width="8" stroke-linecap="round"/>
  <path d="M84 86c10-10 26-18 44-18s34 8 44 18" stroke="#0A2F1F" stroke-width="8" stroke-linecap="round"/>
  <text x="128" y="232" text-anchor="middle" fill="#F0FDF4" font-size="24" font-family="Segoe UI, Roboto, 'Helvetica Neue', Arial" font-weight="700">Sarthi.AI</text>
</svg>
